# xmcd
#
# Track frame offsets:
#	150
#	28115
#	53507
#	73661
#	94393
#	120881
#	142227
#	161837
#	178663
#	195679
#	214297
#	232854
#	249396
#	258847
#	269946
#	289971
#	315089
#	327528
#
# Disc length: 4606
#
# Revision: 3
# Processed by: cddbd v1.5.1PL0 Copyright (c) Steve Scherf et al.
# Submitted via: CDex 1.51
# Normalized: r2:DSETVAR1,TDELIM( - )
#
DISCID=1311fc12
DTITLE=Various Artist - The Best Smooth Jazz... Ever! CD-1
DYEAR=2004
DGENRE=Jazz
TTITLE0=Chuck Mangione - Give It All You Got
TTITLE1=Earl Klugh - Living Inside Your Love
TTITLE2=Lee Ritenour - Is It You?
TTITLE3=Larry Carlton - Sleepwalk
TTITLE4=Ronnie Laws - Every Generation
TTITLE5=Shakatak - Easier Said and Done
TTITLE6=Randy Crawford - One Day I'll Fly Away
TTITLE7=Luther Vandross - So Amazing
TTITLE8=Minnie Riperton - Lovin' You
TTITLE9=Arrested Development - Everyday People
TTITLE10=Brand New Heavies - Midnight At The Oasis
TTITLE11=Billy Taylori - Wish I Knew How It Would Feel To Be Free
TTITLE12=Bill Withers - Ain't No Sunshine
TTITLE13=Elsa Soares - Mas Que Nada (Say No More)
TTITLE14=Ronnie Foster - Me and Mrs Jones
TTITLE15=Fourplay - Bali Run
TTITLE16=Bobbi Humphrey - You Are The Sunshine Of My Life
TTITLE17=Timmy Thomas - Why Can't We Live Together
EXTD=YEAR: 2004
EXTT0=
EXTT1=
EXTT2=
EXTT3=
EXTT4=
EXTT5=
EXTT6=
EXTT7=
EXTT8=
EXTT9=
EXTT10=
EXTT11=
EXTT12=
EXTT13=
EXTT14=
EXTT15=
EXTT16=
EXTT17=
PLAYORDER=
